<svg xmlns="http://www.w3.org/2000/svg" width="520" height="128" viewBox="0 0 520 128" role="img" aria-labelledby="title desc">
  <title id="title">DK Safety Solutions desktop logo</title>
  <desc id="desc">Horizontal DK Safety Solutions logo with shield and safety net line mark.</desc>
  <defs>
    <linearGradient id="markGradient" x1="14" y1="12" x2="106" y2="112" gradientUnits="userSpaceOnUse">
      <stop offset="0" stop-color="#064e3b"/>
      <stop offset="0.52" stop-color="#0f766e"/>
      <stop offset="1" stop-color="#f59e0b"/>
    </linearGradient>
    <linearGradient id="textGradient" x1="132" y1="34" x2="498" y2="92" gradientUnits="userSpaceOnUse">
      <stop offset="0" stop-color="#0f172a"/>
      <stop offset="1" stop-color="#14532d"/>
    </linearGradient>
    <filter id="softShadow" x="-18%" y="-18%" width="136%" height="136%" color-interpolation-filters="sRGB">
      <feDropShadow dx="0" dy="8" stdDeviation="7" flood-color="#0f172a" flood-opacity="0.14"/>
    </filter>
  </defs>
  <rect width="520" height="128" rx="28" fill="#ffffff"/>
  <g filter="url(#softShadow)">
    <path d="M64 14 106 30v35c0 27-17 45-42 53-25-8-42-26-42-53V30l42-16Z" fill="url(#markGradient)"/>
  </g>
  <path d="M43 39h42M36 55h56M33 71h62M42 87h44" stroke="#ffffff" stroke-width="3.5" stroke-linecap="round" opacity="0.62"/>
  <path d="M50 32v63M66 27v73M82 36v53" stroke="#ffffff" stroke-width="3.2" stroke-linecap="round" opacity="0.38"/>
  <text x="64" y="77" text-anchor="middle" fill="#ffffff" font-family="Arial, Helvetica, sans-serif" font-size="31" font-weight="900" letter-spacing="0">DK</text>
  <path d="M118 32v64" stroke="#f59e0b" stroke-width="3" stroke-linecap="round"/>
  <text x="140" y="56" fill="url(#textGradient)" font-family="Arial, Helvetica, sans-serif" font-size="31" font-weight="900" letter-spacing="0">DK Safety Solutions</text>
  <text x="142" y="84" fill="#475569" font-family="Arial, Helvetica, sans-serif" font-size="15" font-weight="700" letter-spacing="2.7">CHENNAI SAFETY NETS</text>
  <circle cx="486" cy="40" r="8" fill="#f59e0b"/>
  <circle cx="462" cy="88" r="5" fill="#0f766e"/>
</svg>
